<svg width="90" height="32" viewBox="0 0 90 32" fill="none" xmlns="http://www.w3.org/2000/svg">
<path d="M9.71758 17.1931C7.71048 19.7421 3.73739 19.8094 1.49482 17.5257C-0.635622 15.3803 -0.373989 11.9604 1.53967 9.8337C2.4666 7.01554 6.54435 7.36687 8.69348 9.08618C11.1827 11.0933 11.7471 14.6104 9.71758 17.1931Z" fill="#FFDCDC"/>
<path d="M13.504 9.48236C11.5305 9.48236 10.7195 8.25268 10.5513 6.75763C9.91588 4.88882 10.7681 2.70232 12.8574 2.15662C13.3517 2.03206 13.8668 2.01293 14.369 2.10049C14.8712 2.18804 15.3494 2.38031 15.7724 2.66481C16.1955 2.9493 16.5539 3.31964 16.8244 3.75175C17.0949 4.18386 17.2714 4.66806 17.3425 5.17288C17.4083 5.71483 17.358 6.26457 17.1949 6.78555C17.0318 7.30654 16.7596 7.78683 16.3965 8.19449C16.0334 8.60215 15.5876 8.92783 15.0889 9.14989C14.5902 9.37194 14.0499 9.48528 13.504 9.48236Z" fill="#FFDCDC"/>
<path d="M19.7271 31.1232L19.8504 30.8914C19.0244 30.3644 18.2022 29.8299 17.3799 29.2992C16.675 28.7488 16.0332 28.1221 15.4662 27.4304C14.6963 26.5819 13.9226 25.7298 13.1489 24.8851C13.0816 24.8141 12.9957 24.7318 12.9882 24.6646C12.2227 23.8586 11.5917 22.9348 11.1194 21.9286C10.6247 21.1492 10.1778 20.3403 9.7813 19.5066C9.74019 19.4169 9.83363 19.26 9.86353 19.1329C10.0298 19.0951 10.1897 19.0334 10.3382 18.9497C10.8272 18.5216 11.1838 17.9627 11.366 17.3388C12.1547 15.3205 12.8312 13.276 12.7564 11.0671C12.7367 10.9488 12.7028 10.8334 12.6555 10.7232C12.5502 10.7791 12.4533 10.8495 12.3677 10.9325C11.8445 11.624 11.3137 12.3117 10.8204 13.0256C10.087 14.0381 9.57743 15.1949 9.32531 16.4194C9.21318 16.9987 9.19823 17.593 9.14217 18.1798C9.1087 18.1322 9.07872 18.0822 9.05246 18.0303C8.7385 17.2828 8.43576 16.5352 8.11058 15.7877C8.0657 15.7004 8.05234 15.6003 8.07277 15.5042C8.0932 15.4082 8.14617 15.3222 8.22271 15.2607C8.59912 14.908 8.94081 14.52 9.24308 14.102C10.055 12.7658 10.6445 11.3066 10.9886 9.78135C11.1126 9.23408 11.1938 8.67799 11.2315 8.11811C11.2315 7.94618 11.1119 7.76304 11.0484 7.58363C10.8712 7.64949 10.7068 7.7456 10.5625 7.86769C10.1588 8.35358 9.77382 8.85816 9.40754 9.36274C8.661 10.3041 8.13252 11.3994 7.86016 12.5696C7.75925 13.1377 7.7144 13.7171 7.63964 14.2927H7.60227L6.91828 11.5866L7.11264 11.8744C7.1894 11.7195 7.27813 11.5708 7.37801 11.4296C7.82279 10.8727 8.39464 10.3831 8.70113 9.75892C9.15201 8.79287 9.52691 7.79315 9.82241 6.76883C9.937 6.28999 9.99718 5.79975 10.0018 5.30742C10.0018 5.18408 9.91585 5.057 9.86726 4.93366C9.76635 4.97477 9.62432 4.98972 9.57199 5.06447C8.84316 6.06989 8.07694 7.05289 7.42286 8.09942C7.13714 8.65956 6.90439 9.24517 6.72766 9.84863C6.61766 9.48953 6.63751 9.10318 6.78373 8.75724C7.39657 7.20666 7.80735 5.58367 8.00593 3.92824C8.11885 2.76188 8.17001 1.59037 8.15917 0.418613C8.13817 0.273465 8.09532 0.13233 8.03209 0C7.89754 0.0672772 7.71813 0.104653 7.62843 0.213044C6.86636 1.09526 6.31543 2.1396 6.01752 3.26668C5.61385 5.01589 5.79326 6.76509 6.12591 8.49935C6.27915 9.29546 6.4436 10.0878 6.60432 10.8914C5.80821 10.5887 5.10927 10.2822 4.39165 10.0579C3.1412 9.72072 1.82914 9.68104 0.560592 9.94207C0.401234 9.99572 0.25303 10.0781 0.123291 10.185C0.202297 10.3448 0.304297 10.4921 0.426038 10.6223C1.28885 11.3235 2.36418 11.7109 3.47594 11.7212C4.35869 11.7447 5.24014 11.6389 6.09227 11.4072C6.55573 11.2764 6.61554 11.3287 6.72019 11.781C6.84727 12.3304 6.97435 12.8798 7.11638 13.4255C7.21729 13.8292 7.34063 14.2329 7.46397 14.6851C7.35558 14.6253 7.29578 14.5991 7.23972 14.5618C6.38923 13.9552 5.34271 13.6886 4.30569 13.8142C3.22178 13.9899 2.15656 14.2852 1.08386 14.5356C0.91153 14.5741 0.743679 14.6305 0.583018 14.7038C0.528903 14.7213 0.481731 14.7555 0.448273 14.8015C0.414816 14.8475 0.396793 14.9029 0.396793 14.9598C0.396793 15.0167 0.414816 15.0721 0.448273 15.1181C0.481731 15.1641 0.528903 15.1983 0.583018 15.2158C1.11467 15.485 1.67024 15.7039 2.24252 15.8699C2.93338 15.9918 3.63119 16.0705 4.33185 16.1054C5.48477 16.2165 6.64639 16.0165 7.69571 15.5261L8.9665 18.5535C7.57522 18.0275 6.06519 17.8981 4.6047 18.1798C3.48341 18.4227 2.36212 18.8152 1.27074 19.159C1.13245 19.2039 1.02406 19.3459 0.896978 19.4394C1.01284 19.5627 1.10628 19.7458 1.24831 19.8131C1.93448 20.1196 2.64449 20.3696 3.37128 20.5606C4.06515 20.6656 4.76637 20.7143 5.46809 20.7064C6.69369 20.7127 7.90315 20.427 8.9964 19.8729C9.14517 19.7984 9.2899 19.7161 9.42996 19.6262L11.908 23.8161C11.5342 23.6703 11.0969 23.4797 10.6559 23.3452C8.78709 22.7696 6.83979 22.7696 4.90371 22.9714C4.19356 23.0387 3.49089 23.1919 2.78821 23.319C2.48547 23.3751 2.41445 23.5283 2.60507 23.7152C3.20796 24.3571 3.93038 24.8751 4.73178 25.2401C6.08355 25.7899 7.52964 26.0705 8.98892 26.0662C10.2316 26.1389 11.4647 25.81 12.506 25.128C12.5843 25.0955 12.6695 25.0833 12.7538 25.0925C12.8381 25.1016 12.9187 25.1318 12.9882 25.1803C13.7992 26.0736 14.5804 26.9931 15.4102 27.9499L14.7523 27.7331C13.9103 27.4311 13.0291 27.2523 12.136 27.2024C10.4523 27.1662 8.78151 27.5032 7.24346 28.1891C6.8211 28.3611 6.38007 28.4956 5.95398 28.6526C5.85547 28.6962 5.7605 28.7475 5.66992 28.8058C5.74467 28.9142 5.797 29.0824 5.89418 29.1198C6.69029 29.4039 7.47519 29.7963 8.29746 29.8972C10.0803 30.1177 11.8818 30.3569 13.6871 30.0131C14.6103 29.8412 15.5372 29.6842 16.2848 29.0413C16.3415 28.9993 16.4015 28.9618 16.4642 28.9292C16.5988 29.0823 16.7464 29.2236 16.9052 29.3515C17.72 29.9047 18.5348 30.4728 19.3646 30.9849L19.686 31.183C19.7056 31.1678 19.7199 31.1469 19.7271 31.1232ZM9.63553 6.04747C9.26177 7.76677 8.88801 9.50477 7.49761 10.7756C8.03934 9.12831 8.75476 7.54336 9.63179 6.04747H9.63553ZM9.21692 5.92039C8.51798 7.52757 7.72187 9.3291 6.97435 11.1082C6.95566 8.97029 8.05078 7.322 9.21318 5.92039H9.21692ZM1.25205 10.1588C2.64834 9.96944 4.06984 10.1646 5.36343 10.7232L1.25205 10.2523V10.1588ZM0.792325 10.484L5.83437 11.097C4.63833 11.8146 1.59591 11.4035 0.792325 10.484ZM6.30905 7.89012C5.64002 5.27378 6.30905 1.8875 7.7742 0.538217C6.82858 2.88918 6.68281 5.39339 6.30905 7.89012ZM7.8041 1.27079C8.14048 2.18277 7.3967 6.73519 6.63796 8.14427C6.84353 5.83816 6.99304 3.52084 7.79662 1.27079H7.8041ZM6.38754 14.4459C6.67908 14.5805 6.94818 14.7561 7.22851 14.9131L7.19113 15.0439C5.2765 14.7861 3.34336 14.6923 1.41277 14.7636C3.04985 14.3113 4.67571 13.6573 6.38754 14.4459ZM1.26326 15.1934C1.88371 14.943 6.24925 15.0551 7.33316 15.3504C6.15581 16.0718 2.18272 15.9409 1.26326 15.1897V15.1934ZM8.22271 14.8197C8.93618 12.7067 9.84198 10.6636 10.9287 8.71613C10.4242 10.9101 9.88221 13.1041 8.22271 14.8047V14.8197ZM10.839 7.98356L8.03209 14.0759C7.94239 11.5866 9.45239 9.81499 10.839 7.9686V7.98356ZM1.28195 19.5702C3.60675 18.3517 7.31447 17.9144 9.0263 19.0506C8.9013 19.0495 8.77648 19.0407 8.65254 19.0245C7.34811 18.7853 6.05863 18.9759 4.77289 19.1702C3.80858 19.316 2.84428 19.458 1.87997 19.5889C1.6837 19.5914 1.48753 19.5789 1.29317 19.5515L1.28195 19.5702ZM2.2201 19.8094C4.52621 19.5291 6.80615 18.8937 9.17954 19.3235C8.17412 20.299 4.42903 20.9307 2.2201 19.8094ZM12.4612 11.8296C12.4724 11.9464 12.4724 12.0641 12.4612 12.1809C12.2593 13.1788 12.0874 14.1917 11.8258 15.171C11.558 16.0808 11.2284 16.9712 10.839 17.8359C10.6293 18.1861 10.3784 18.5098 10.0915 18.8002C10.013 18.9011 9.94202 19.0058 9.86726 19.1104C9.8411 18.9609 9.75887 18.7928 9.80372 18.6694C10.4017 17.0273 11.0085 15.389 11.6239 13.7544C11.8632 13.1078 12.1136 12.465 12.3715 11.8184L12.4612 11.8296ZM11.8407 12.2594C11.0745 14.2702 10.312 16.2848 9.5234 18.3554C9.344 15.9223 10.3756 14.0086 11.8407 12.2594ZM11.6202 24.1002L3.78242 23.547C5.26252 22.9901 9.81868 22.9378 11.6202 24.1002ZM10.4989 25.5952C8.31176 25.9623 6.06461 25.5915 4.11133 24.5412C3.80914 24.3467 3.52517 24.1253 3.26289 23.8797L3.30401 23.7974C6.30905 24.0267 9.31908 24.2584 12.3341 24.4926C12.3976 24.4926 12.4537 24.5898 12.5509 24.6758C11.9732 25.1737 11.2626 25.492 10.5064 25.5915L10.4989 25.5952ZM15.6755 28.4059C12.9246 28.5928 10.17 28.4844 7.34063 28.4807C10.1513 27.251 12.9059 27.109 15.6755 28.4059ZM15.47 29.1945C14.1465 29.6833 12.7376 29.8982 11.3287 29.8262C10.7307 29.7851 10.1364 29.7216 9.53835 29.7178C8.47643 29.679 7.43464 29.4166 6.48098 28.9479C9.68412 28.6302 12.8985 29.0151 16.1016 28.6675C16.1016 28.7087 16.1203 28.746 16.1278 28.7834C15.9253 28.9498 15.7046 29.0928 15.47 29.2095V29.1945Z" fill="white"/>
<path d="M14.7672 7.96117C14.4645 8.72738 13.8851 9.0376 13.2348 8.77971C12.9266 8.67172 12.6731 8.44728 12.5284 8.15453C12.3838 7.86178 12.3596 7.52401 12.4611 7.21365C12.6966 6.60068 13.5824 6.15964 14.1729 6.3839C14.4512 6.52501 14.6665 6.76517 14.7765 7.0571C14.8864 7.34902 14.8831 7.67155 14.7672 7.96117ZM14.4757 7.84904C14.5536 7.62963 14.5504 7.38959 14.4668 7.1723C14.3832 6.95501 14.2246 6.7748 14.0197 6.66422C13.7627 6.60653 13.4938 6.63667 13.256 6.74983C13.0182 6.86298 12.8251 7.05261 12.7078 7.2884C12.6646 7.40726 12.6459 7.53363 12.6527 7.65992C12.6596 7.7862 12.6919 7.9098 12.7478 8.02326C12.8037 8.13673 12.8819 8.23773 12.9778 8.32019C13.0737 8.40266 13.1853 8.46488 13.3058 8.50312C13.7992 8.69748 14.2439 8.44332 14.4757 7.84904Z" fill="white"/>
<path d="M4.22696 7.10146C4.33037 7.13184 4.42674 7.18243 4.51046 7.25032C4.59419 7.3182 4.66361 7.40202 4.71471 7.49693C4.76581 7.59183 4.79758 7.69593 4.80816 7.8032C4.81875 7.91046 4.80795 8.01876 4.77639 8.12183C4.73027 8.24821 4.65944 8.36415 4.56803 8.46286C4.47662 8.56158 4.36646 8.64109 4.24399 8.69676C4.12151 8.75243 3.98917 8.78315 3.85469 8.78711C3.72021 8.79107 3.58629 8.76821 3.46074 8.71985C3.27049 8.62857 3.12425 8.4655 3.05416 8.26646C2.98408 8.06742 2.99588 7.8487 3.08698 7.65836C3.12019 7.54355 3.17708 7.43697 3.25399 7.34547C3.33089 7.25398 3.4261 7.17961 3.53349 7.12715C3.64088 7.07468 3.75806 7.04529 3.8775 7.04087C3.99694 7.03645 4.11598 7.05708 4.22696 7.10146ZM4.11483 7.36309C4.03811 7.33127 3.9556 7.31577 3.87256 7.3176C3.78952 7.31942 3.70777 7.33852 3.63253 7.37369C3.55728 7.40885 3.49018 7.4593 3.43551 7.52183C3.38083 7.58435 3.33979 7.65759 3.31498 7.73685C3.25408 7.86918 3.24526 8.01958 3.29029 8.15812C3.33531 8.29665 3.43087 8.41314 3.55792 8.48438C3.74228 8.54511 3.94269 8.53469 4.11975 8.45515C4.29681 8.37561 4.43771 8.23271 4.51475 8.05455C4.53269 7.98362 4.53647 7.90986 4.52589 7.83747C4.51531 7.76508 4.49057 7.69549 4.45308 7.63266C4.4156 7.56984 4.3661 7.51502 4.30742 7.47133C4.24874 7.42764 4.18202 7.39594 4.11109 7.37804L4.11483 7.36309Z" fill="white"/>
<path d="M11.9039 5.01592C12.0908 4.58609 12.3748 4.39921 12.6514 4.52256C12.8163 4.60961 12.9447 4.7528 13.0132 4.92623C13.0818 5.09966 13.086 5.29189 13.0252 5.46817C12.9407 5.60949 12.8063 5.714 12.6485 5.76106C12.4908 5.80811 12.3211 5.79429 12.173 5.72233C12.1032 5.70106 12.0392 5.66411 11.9859 5.61431C11.9326 5.56452 11.8914 5.50319 11.8654 5.43503C11.8395 5.36686 11.8294 5.29366 11.8361 5.22102C11.8428 5.14838 11.866 5.07823 11.9039 5.01592Z" fill="white"/>
<path d="M3.75988 5.27006C3.82947 5.29818 3.89245 5.34045 3.94485 5.39419C3.99724 5.44793 4.03791 5.51196 4.06426 5.58224C4.09061 5.65251 4.10208 5.7275 4.09794 5.80244C4.0938 5.87738 4.07414 5.95064 4.0402 6.01758C3.97856 6.1563 3.86929 6.26837 3.73217 6.3335C3.59505 6.39864 3.43915 6.41252 3.29268 6.37266C3.04226 6.27174 2.96003 5.96899 3.09085 5.64382C3.22166 5.31865 3.48703 5.15793 3.75988 5.27006Z" fill="white"/>
<path d="M1.39777 6.59317C1.52858 6.2194 1.74163 6.2194 1.89861 6.32406C2.05559 6.42871 2.07801 6.60438 2.16772 6.75015C1.99978 6.84548 1.81404 6.90527 1.62202 6.92581C1.52111 6.9146 1.44636 6.66792 1.39777 6.59317Z" fill="white"/>
<path d="M14.1133 5.05693C14.0423 4.80277 13.9376 4.61963 13.9862 4.55235C14.1205 4.40466 14.2769 4.27858 14.4497 4.17859C14.5265 4.36248 14.5696 4.55874 14.5767 4.75792C14.5767 4.85884 14.345 4.9149 14.1133 5.05693Z" fill="white"/>
<path d="M20.2242 16.4679C23.2816 16.8753 24.1674 18.3853 24.1674 19.9514C24.1674 22.1491 22.4256 23.689 19.529 23.689C18.9534 23.689 17.791 23.6292 16.2062 23.6292C15.3017 23.6292 14.3374 23.6516 13.8104 23.689V23.3152C15.1223 23.2592 15.3765 23.0611 15.3765 21.6557V12.065C15.3765 10.6597 15.1223 10.4616 13.8104 10.4055V10.0317C14.3486 10.0691 15.3055 10.0878 16.1689 10.0878C17.3873 10.0878 18.6207 10.0504 19.0842 10.0504C21.7902 10.0355 23.1732 11.2913 23.1732 13.0816C23.1732 14.4496 22.3995 15.7802 20.2391 16.4455L20.2242 16.4679ZM17.1705 12.065V16.4455H18.4712C20.7437 16.4455 21.3044 14.9504 21.3044 13.2797C21.3044 11.3848 20.5307 10.4055 18.5946 10.4055C17.4247 10.4055 17.1705 10.7344 17.1705 12.065ZM22.235 19.8654C22.235 17.9032 21.2446 16.7632 18.7927 16.7632H17.1705V21.6483C17.1705 22.9975 17.4247 23.2517 18.6207 23.2517C21.1511 23.2517 22.235 22.0519 22.235 19.8654Z" fill="white"/>
<path d="M34.7149 18.7329C34.7149 22.4406 32.7826 23.9655 30.3307 23.9655C27.8788 23.9655 25.9427 22.4256 25.9427 18.7329C25.9427 15.0401 27.8751 13.4778 30.3307 13.4778C32.7863 13.4778 34.7149 15.0177 34.7149 18.7329ZM27.819 18.7329C27.819 22.1864 28.8656 23.5918 30.3307 23.5918C31.7959 23.5918 32.8387 22.1976 32.8387 18.7329C32.8387 15.2681 31.7996 13.874 30.3307 13.874C28.8618 13.874 27.819 15.2718 27.819 18.7329Z" fill="white"/>
<path d="M42.149 13.762V14.1357H39.2897V21.611C39.2897 22.8257 39.7532 23.2518 40.5269 23.2518C41.3005 23.2518 41.8649 22.6949 42.2723 21.1849L42.6461 21.2821C42.3807 22.7771 41.7005 23.9507 40.1381 23.9507C39.2486 23.9507 38.7291 23.7339 38.3067 23.3078C37.7423 22.7322 37.5592 21.9772 37.5592 20.6018V14.1469H35.6904V13.7732H37.5592V10.8205C38.148 10.8205 38.7331 10.7285 39.2934 10.5476V13.7732L42.149 13.762Z" fill="white"/>
<path d="M49.6131 14.2029C50.2261 14.8234 50.3831 15.541 50.3831 16.909V22.2799C50.3831 22.9041 50.5363 23.1956 50.9773 23.1956C51.3071 23.1779 51.6181 23.0364 51.8482 22.7994L52.065 23.1321C51.5863 23.5804 50.9566 23.8325 50.3008 23.8385C48.9515 23.8385 48.6413 23.0274 48.6413 22.1229C48.3456 22.6492 47.9136 23.0862 47.3908 23.388C46.868 23.6899 46.2736 23.8455 45.6699 23.8385C44.3767 23.8385 43.2143 23.1882 43.2143 21.6782C43.2143 20.1682 44.3954 19.4692 46.3277 18.6582C47.6209 18.1237 48.6413 17.791 48.6413 17.0173V15.8101C48.6413 14.188 47.8489 13.8665 46.8473 13.8665C46.1857 13.8665 45.3746 13.9974 44.9336 14.5543C45.1959 14.6194 45.4283 14.7718 45.5926 14.9864C45.757 15.201 45.8435 15.4651 45.8381 15.7353C45.8438 15.8808 45.8181 16.0258 45.7627 16.1604C45.7073 16.295 45.6235 16.416 45.5171 16.5154C45.4107 16.6147 45.2841 16.6899 45.146 16.7359C45.0079 16.7819 44.8615 16.7976 44.7168 16.7819C44.0553 16.7819 43.6703 16.281 43.6703 15.5821C43.6703 15.0177 44.044 14.5729 44.5748 14.2067C45.3896 13.7093 46.3302 13.4563 47.2846 13.4778C48.3573 13.4778 49.1683 13.7619 49.6131 14.2029ZM48.6413 17.7948C48.432 18.1087 48.0059 18.3031 46.7912 18.9161C45.9428 19.3235 44.9224 19.8804 44.9224 21.3717C44.9224 22.5303 45.5802 23.0686 46.4698 23.0686C47.2435 23.0686 47.9947 22.6612 48.6488 21.6071L48.6413 17.7948Z" fill="white"/>
<path d="M61.1843 14.2029C61.6665 14.7299 61.8534 15.4176 61.8534 16.7407V21.9024C61.8534 22.9788 62.2608 23.289 63.326 23.289V23.6964C62.8849 23.6964 61.8534 23.6179 61.0049 23.6179C60.1565 23.6179 59.252 23.6777 58.8446 23.6964V23.289C59.7715 23.289 60.1191 22.9788 60.1191 21.9024V16.3184C60.1191 15.1186 59.9509 14.0758 58.5531 14.0758C56.9309 14.0758 55.847 15.6232 55.847 17.5966V21.9024C55.847 22.9788 56.1946 23.289 57.129 23.289V23.6964C56.7254 23.6964 55.8096 23.6179 54.9612 23.6179C54.1128 23.6179 53.0924 23.6777 52.6401 23.6964V23.289C53.7054 23.289 54.109 22.9788 54.109 21.9024V15.8549C54.109 14.6962 53.7614 14.1468 52.6401 14.1468V13.7432C53.0438 13.7805 53.4512 13.7992 53.8362 13.7992C54.5163 13.8183 55.1951 13.7287 55.847 13.5338V15.8101C56.5273 14.0721 57.8167 13.4778 59.1399 13.4778C60.1191 13.4778 60.7433 13.7432 61.1843 14.2029Z" fill="white"/>
<path d="M67.3856 21.9024C67.3856 22.9788 67.7892 23.2891 68.8545 23.2891V23.6965C68.4134 23.6965 67.4043 23.618 66.5147 23.618C65.6252 23.618 64.6197 23.6778 64.1787 23.6965V23.2891C65.2439 23.2891 65.6476 22.9788 65.6476 21.9024V15.8549C65.6476 14.6963 65.3 14.1469 64.1787 14.1469V13.7432C64.5824 13.7806 64.9898 13.7993 65.3747 13.7993C66.0549 13.8183 66.7337 13.7287 67.3856 13.5339V21.9024ZM67.6211 10.1476C67.6218 10.3924 67.5499 10.632 67.4144 10.8359C67.2789 11.0399 67.0859 11.199 66.8599 11.2932C66.6339 11.3875 66.3851 11.4125 66.1448 11.3652C65.9046 11.3179 65.6838 11.2003 65.5104 11.0275C65.337 10.8546 65.2188 10.6342 65.1708 10.3941C65.1228 10.154 65.147 9.90504 65.2406 9.67877C65.3341 9.45249 65.4927 9.25905 65.6962 9.12294C65.8997 8.98684 66.1391 8.91419 66.3839 8.91418C66.7105 8.91709 67.0229 9.04786 67.2542 9.27844C67.4854 9.50902 67.6172 9.82104 67.6211 10.1476Z" fill="white"/>
<path d="M78.4225 22.2799C78.8636 22.8817 79.1925 23.2143 79.7681 23.2891V23.6965C79.4765 23.6965 78.7888 23.618 78.202 23.618C77.3909 23.618 76.4677 23.6778 76.0641 23.6965V23.2891C76.4378 23.2891 76.6584 23.1396 76.6584 22.9153C76.65 22.8076 76.6097 22.7047 76.5425 22.6201L74.3261 19.3758C73.8551 18.718 73.5524 18.5573 72.8759 18.5274V21.8912C72.8759 22.9677 73.2235 23.2779 74.1467 23.2779V23.6965C73.743 23.6965 72.8161 23.618 72.005 23.618C71.1192 23.618 70.11 23.6778 69.669 23.6965V23.2891C70.7342 23.2891 71.1379 22.9789 71.1379 21.9024V10.8653C71.1379 9.70659 70.7903 9.16837 69.669 9.16837V8.76097C70.0664 8.80093 70.4656 8.82089 70.865 8.82077C71.546 8.8402 72.2255 8.74675 72.8759 8.54419V18.1387C73.5094 18.0882 74.1013 17.803 74.5354 17.3388L75.9669 15.8438C76.4005 15.3915 76.5799 15.0439 76.5799 14.7785C76.5799 14.3076 75.9669 14.117 75.1558 14.117V13.7432C75.8286 13.7806 76.778 13.818 77.3349 13.818C77.9777 13.818 78.6281 13.7806 79.0168 13.7432V14.117C78.3448 14.1935 77.7253 14.5173 77.2788 15.0252L74.9316 17.4958L78.4225 22.2799Z" fill="white"/>
<path d="M86.8621 14.203C87.4751 14.8234 87.6358 15.5411 87.6358 16.909V22.28C87.6358 22.9042 87.7891 23.1957 88.2301 23.1957C88.5599 23.178 88.8709 23.0365 89.101 22.7995L89.3177 23.1322C88.839 23.5804 88.2094 23.8325 87.5536 23.8386C86.2043 23.8386 85.8903 23.0275 85.8903 22.123C85.5931 22.6521 85.1582 23.0909 84.6318 23.3929C84.1054 23.695 83.507 23.8489 82.9002 23.8386C81.6108 23.8386 80.4484 23.1882 80.4484 21.6782C80.4484 20.1682 81.6295 19.4693 83.5618 18.6582C84.855 18.1238 85.8717 17.7911 85.8717 17.0174V15.8102C85.8717 14.188 85.0793 13.8666 84.0813 13.8666C83.4198 13.8666 82.6087 13.9974 82.1677 14.5543C82.43 14.6195 82.6624 14.7719 82.8267 14.9865C82.9911 15.2011 83.0776 15.4652 83.0722 15.7354C83.0779 15.8809 83.0521 16.0258 82.9967 16.1604C82.9413 16.295 82.8576 16.4161 82.7512 16.5154C82.6448 16.6147 82.5182 16.69 82.3801 16.736C82.242 16.7819 82.0956 16.7976 81.9509 16.7819C81.2893 16.7819 80.9044 16.2811 80.9044 15.5822C80.9044 15.0178 81.2781 14.573 81.8089 14.2067C82.6226 13.7099 83.5617 13.4569 84.5149 13.4779C85.61 13.4779 86.4211 13.7619 86.8621 14.203ZM85.8903 17.7948C85.6848 18.1088 85.2587 18.3032 84.044 18.9161C83.1955 19.3235 82.1751 19.8804 82.1751 21.3717C82.1751 22.5304 82.833 23.0686 83.7188 23.0686C84.4925 23.0686 85.2475 22.6612 85.8978 21.6072L85.8903 17.7948Z" fill="white"/>
</svg>
